# Blender v2.79 (sub 0) OBJ File: ''
# www.blender.org
mtllib dom2.mtl
o Object.1
v 49.999996 -43.893082 98.208221
v 47.354855 -43.893082 100.305023
v 47.354855 -43.893082 98.208221
v 49.999996 -26.781305 56.896545
v 49.999996 -2.894658 98.208229
v 49.999996 -26.781311 98.208221
v 49.999996 -43.893082 100.305023
v 49.999996 -26.781313 100.305023
v 47.354855 -26.781311 98.208221
v 47.354855 -43.893074 56.896542
v 49.999996 -43.893074 56.896542
v 47.354855 -26.781305 56.896545
v 49.999996 -2.894642 2.074271
v 49.999996 -0.143322 46.863712
v 49.999996 -2.894650 46.863712
v -47.082542 -2.894658 98.208229
v -49.999996 -2.894659 100.305031
v -47.082542 -2.894659 100.305031
v 47.354855 -2.894659 100.305031
v 47.354855 -26.781313 100.305023
v 49.999996 -26.781303 46.863708
v 47.354855 -26.781303 46.863708
v 49.999996 -44.155396 46.863705
v 49.999996 -2.894651 56.896549
v -5.033265 -0.143518 56.896549
v -49.770393 -0.143322 46.863712
v -49.770393 -0.143518 56.896549
v 47.354855 -2.894651 56.896549
v 47.355049 -44.155388 2.074265
v 49.999996 -44.155388 -0.000007
v 49.999996 -44.155388 2.074265
v 49.999996 -26.781296 2.074268
v -46.904457 -26.781296 -0.000004
v -49.908707 -2.894642 -0.000000
v -46.904457 -2.894642 -0.000000
v 47.355049 -2.894642 -0.000000
v 49.999996 -26.781296 -0.000004
v 47.355049 -26.781296 -0.000004
v 49.999996 -2.894642 -0.000000
v 49.999996 -0.143314 2.074272
v -49.908707 -2.894642 2.074076
v -46.904457 -2.894642 2.074076
v 49.999996 -0.143525 98.208229
v -47.082542 -26.781313 100.305023
v -49.999996 -43.893082 100.305023
v -47.082542 -43.893082 100.305023
v 49.999996 -2.894659 100.305031
v -49.999996 -26.781313 100.305023
v -49.999996 -2.894658 98.208229
v -49.999996 -26.781311 98.208221
v -49.999996 -43.893082 98.208221
v -47.082542 -43.893082 98.208221
v -47.082542 -26.781311 98.208221
v 49.999996 -0.143525 100.305031
v 47.354855 -2.894650 46.863712
v 47.355049 -26.781296 2.074268
v 47.354855 -44.155396 46.863705
v -49.908707 -26.781296 -0.000004
v -49.908707 -44.155388 2.074070
v -49.908707 -26.781296 2.074073
v -46.904457 -26.781311 98.244469
v -49.908707 -26.781311 98.244469
v -49.908707 -44.155403 98.244469
v -46.904457 -2.894658 98.244476
v -46.904457 -44.155388 2.074070
v -49.908707 -44.155388 -0.000007
v -46.904457 -44.155388 -0.000007
v 47.354855 -2.894658 98.208229
v 47.355049 -44.155388 -0.000007
v 47.355049 -2.894642 2.074271
v -46.904457 -26.781296 2.074073
v -49.908707 -2.894658 98.244476
v -46.904457 -44.155403 98.244469
v 47.354855 -0.143525 100.305031
v 49.999996 -0.143518 56.896549
v 47.354855 -0.143322 46.863712
v 47.354855 -0.143518 56.896549
v 47.354855 -0.143525 98.208229
v 49.999996 -0.143314 -0.000000
v 47.355049 -0.143314 2.074272
v -5.033069 -0.143314 2.074077
v -49.770393 -0.143314 -0.000000
v -49.770393 -0.143314 2.074077
v -5.033265 -2.894658 98.208229
v -49.770393 -2.894659 100.305031
v -49.770393 -2.894658 98.207642
v -5.033265 -0.143322 46.863712
v -5.033069 -2.894642 -0.000000
v -5.033069 -0.143314 -0.000000
v -49.770393 -0.143525 98.207642
v -49.770393 -2.894650 46.863712
v -49.770393 -2.894642 2.074076
v -49.770393 -2.894651 56.896549
v -49.770393 -2.894642 -0.000000
v -5.033265 -0.143525 98.208229
v -49.770393 -0.143525 100.305031
v -5.033265 -0.143525 100.305031
v -5.033265 -2.894650 46.863712
v -5.033069 -2.894642 2.074076
v -5.033265 -2.894659 100.305031
v -5.033265 -2.894651 56.896549
v 5.906230 -2.894642 2.074076
v 5.906230 -2.894642 -0.000000
v 5.906230 -2.894651 56.896549
v 5.906230 -2.894650 46.863712
v 5.906230 -0.143525 100.305031
v 5.906230 -2.894659 100.305031
v 5.906230 -0.143518 56.896549
v 5.906230 -0.143525 98.208229
v 5.906230 -0.143314 -0.000000
v 5.906230 -0.143314 2.074077
v 5.906230 -0.143322 46.863712
v 5.906230 -2.894658 98.208229
v 47.355049 -0.143314 -0.000000
v 0.989139 31.150612 50.576561
vt 0.662258 0.780028
vt 0.663196 0.774567
vt 0.659698 0.776286
vt 0.325280 0.941482
vt 0.379049 0.994789
vt 0.393254 0.962930
vt 0.689388 0.779181
vt 0.664598 0.777752
vt 0.689832 0.776613
vt 0.759561 0.585128
vt 0.687624 0.591593
vt 0.790221 0.638208
vt 0.354043 0.933755
vt 0.342188 0.914963
vt 0.199949 0.933563
vt 0.283692 0.969515
vt 0.285193 0.965633
vt 0.428005 0.584371
vt 0.427032 0.579126
vt 0.424834 0.583040
vt 0.733162 0.775679
vt 0.689822 0.772699
vt 0.281279 0.926320
vt 0.315720 0.901408
vt 0.287340 0.900520
vt 0.305964 0.972389
vt 0.581541 0.818743
vt 0.485853 0.836334
vt 0.496431 0.847296
vt 0.351230 0.892140
vt 0.236536 0.850614
vt 0.230088 0.858862
vt 0.233909 0.861093
vt 0.215275 0.887767
vt 0.165597 0.597985
vt 0.139166 0.564434
vt 0.132221 0.565002
vt 0.006402 0.663392
vt 0.034259 0.695870
vt 0.039141 0.692511
vt 0.196089 0.931325
vt 0.197569 0.937017
vt 0.141314 0.556521
vt 0.131906 0.558776
vt 0.391988 0.929283
vt 0.378630 0.999351
vt 0.696438 0.652436
vt 0.667262 0.649435
vt 0.667242 0.653060
vt 0.402064 0.956283
vt 0.384060 0.996423
vt 0.396778 0.960957
vt 0.407318 0.955823
vt 0.356019 0.932515
vt 0.464060 0.576234
vt 0.429668 0.581344
vt 0.463565 0.580253
vt 0.486166 0.577244
vt 0.485797 0.574955
vt 0.664284 0.649163
vt 0.663895 0.652529
vt 0.486555 0.580469
vt 0.463338 0.585602
vt 0.728178 0.643153
vt 0.696576 0.648011
vt 0.382554 0.998409
vt 0.340215 0.878228
vt 0.272735 0.831605
vt 0.286953 0.895322
vt 0.212748 0.885023
vt 0.170422 0.592095
vt 0.197086 0.603792
vt 0.174060 0.587266
vt 0.347400 0.560087
vt 0.337675 0.547616
vt 0.315700 0.570709
vt 0.246714 0.670287
vt 0.380364 0.591331
vt 0.246835 0.667463
vt 0.190519 0.625561
vt 0.192398 0.610422
vt 0.188156 0.622215
vt 0.451567 0.705092
vt 0.411317 0.707314
vt 0.486794 0.709375
vt 0.408451 0.707522
vt 0.062319 0.721454
vt 0.066272 0.727041
vt 0.117549 0.799766
vt 0.217709 0.663308
vt 0.084991 0.757714
vt 0.000510 0.662727
vt 0.594046 0.677912
vt 0.494169 0.608440
vt 0.560804 0.709349
vt 0.313403 0.574048
vt 0.631438 0.960708
vt 0.624056 0.961717
vt 0.629632 0.963892
vt 0.655816 0.866996
vt 0.655409 0.843766
vt 0.652620 0.865381
vt 0.281240 0.973065
vt 0.628574 0.958663
vt 0.194588 0.935144
vt 0.194099 0.939895
vt 0.303578 0.975860
vt 0.624395 0.966338
vt 0.619698 0.965595
vt 0.518479 0.769812
vt 0.445043 0.793656
vt 0.453885 0.796298
vt 0.190472 0.930507
vt 0.561006 0.923768
vt 0.535025 0.884506
vt 0.530938 0.883959
vt 0.567760 0.804156
vt 0.087852 0.960632
vt 0.001869 0.989800
vt 0.089066 0.963866
vt 0.539484 0.881270
vt 0.479493 0.839079
vt 0.437052 0.806229
vt 0.491752 0.851219
vt 0.434871 0.797808
vt 0.577509 0.912077
vt 0.538562 0.883598
vt 0.573067 0.917059
vt 0.465997 0.920358
vt 0.414059 0.895493
vt 0.566973 0.921029
vt 0.480819 0.930022
vt 0.410381 0.899198
vt 0.416901 0.939458
vt 0.408525 0.928266
vt 0.487349 0.945117
vt 0.473747 0.948196
vt 0.585177 0.928041
vt 0.580187 0.932465
vt 0.597888 0.832413
vt 0.588118 0.923104
vt 0.108950 0.953780
vt 0.110196 0.956420
vt 0.552209 0.758188
vt 0.598270 0.807152
vt 0.572430 0.933795
vt 0.549938 0.755115
vt 0.634998 0.756573
vt 0.635995 0.759734
vt 0.617318 0.966798
vt 0.190553 0.935883
vt 0.508174 0.999390
vt 0.431430 0.994842
vt 0.533070 0.993544
vt 0.427609 0.995373
vt 0.756616 0.890493
vt 0.738306 0.973833
vt 0.752944 0.976920
vt 0.074227 0.454475
vt 0.000545 0.493776
vt 0.079563 0.467767
vt 0.738209 0.806839
vt 0.752866 0.803751
vt 0.659750 0.814764
vt 0.659708 0.966039
vt 0.659961 0.556488
vt 0.647682 0.993620
vt 0.228369 0.847461
vt 0.402061 0.900075
vt 0.408617 0.710600
vt 0.544564 0.753496
vt 0.562185 0.740203
vt 0.727882 0.639784
vt 0.291272 0.800841
vt 0.510404 0.577530
vt 0.487863 0.608126
vt 0.516296 0.581056
vt 0.658463 0.846502
vt 0.293122 0.971316
vt 0.519421 0.767478
vt 0.000561 0.986536
vt 0.793308 0.998018
vt 0.796514 0.999385
vt 0.052256 0.399740
vt 0.110585 0.497344
vt 0.000580 0.495070
vt 0.002476 0.497344
vt 0.043436 0.546450
vt 0.051140 0.396962
vt 0.795560 0.781128
vt 0.792862 0.782822
vn 0.0000 -1.0000 0.0000
vn 1.0000 0.0000 0.0000
vn 0.0000 0.0000 1.0000
vn -1.0000 0.0000 0.0000
vn 0.0000 0.0000 -1.0000
vn 0.0000 1.0000 0.0000
vn 0.0000 0.8464 0.5326
vn -0.5382 -0.8428 -0.0000
vn 0.0000 0.8504 -0.5262
vn -0.5248 0.8512 0.0000
usemtl None
s off
f 1/1/1 2/2/1 3/3/1
f 4/4/2 5/5/2 6/6/2
f 6/7/2 7/8/2 1/1/2
f 8/9/3 2/2/3 7/8/3
f 9/10/4 10/11/4 3/12/4
f 11/13/5 12/14/5 4/4/5
f 13/15/2 14/16/2 15/17/2
f 16/18/6 17/19/6 18/20/6
f 8/9/3 19/21/3 20/22/3
f 21/23/2 13/15/2 15/17/2
f 22/24/3 23/25/3 21/23/3
f 4/4/2 15/17/2 24/26/2
f 4/4/1 22/24/1 21/23/1
f 25/27/6 26/28/6 27/29/6
f 28/30/4 22/24/4 12/14/4
f 29/31/1 30/32/1 31/33/1
f 21/23/2 31/33/2 32/34/2
f 33/35/5 34/36/5 35/37/5
f 36/38/5 37/39/5 38/40/5
f 32/34/2 39/41/2 13/15/2
f 39/41/2 40/42/2 13/15/2
f 35/37/6 41/43/6 42/44/6
f 9/45/4 28/30/4 12/14/4
f 24/26/2 43/46/2 5/5/2
f 44/47/3 45/48/3 46/49/3
f 4/4/2 1/50/2 11/13/2
f 6/6/2 47/51/2 8/52/2
f 11/13/1 3/53/1 10/54/1
f 48/55/4 49/56/4 50/57/4
f 48/55/4 51/58/4 45/59/4
f 46/49/1 51/60/1 52/61/1
f 52/62/5 50/57/5 53/63/5
f 53/63/5 49/56/5 16/18/5
f 18/64/3 48/65/3 44/47/3
f 5/5/2 54/66/2 47/51/2
f 55/67/4 56/68/4 22/24/4
f 56/68/4 57/69/4 22/24/4
f 32/34/2 30/32/2 37/70/2
f 57/69/1 31/33/1 23/25/1
f 58/71/4 59/72/4 60/73/4
f 41/43/4 58/71/4 60/73/4
f 61/74/3 62/75/3 63/76/3
f 41/77/6 64/78/6 42/79/6
f 65/80/1 66/81/1 67/82/1
f 67/82/5 58/71/5 33/35/5
f 19/21/3 44/47/3 20/22/3
f 9/83/5 16/18/5 68/84/5
f 3/85/5 53/63/5 9/83/5
f 2/2/1 52/61/1 3/3/1
f 20/22/3 46/49/3 2/2/3
f 68/84/6 18/20/6 19/86/6
f 69/87/5 33/35/5 38/40/5
f 29/88/1 67/82/1 69/87/1
f 70/89/3 71/90/3 56/91/3
f 56/91/3 65/80/3 29/88/3
f 36/38/6 42/44/6 70/92/6
f 38/40/5 35/37/5 36/38/5
f 60/93/4 72/94/4 41/95/4
f 42/79/2 61/74/2 71/90/2
f 59/72/4 62/75/4 60/73/4
f 65/80/1 63/76/1 59/72/1
f 71/90/2 73/96/2 65/80/2
f 43/97/6 74/98/6 54/99/6
f 75/100/6 76/101/6 77/102/6
f 40/42/6 76/103/6 14/16/6
f 75/100/6 78/104/6 43/97/6
f 79/105/6 80/106/6 40/42/6
f 15/17/2 75/107/2 24/26/2
f 47/108/3 74/98/3 19/109/3
f 81/110/6 82/111/6 83/112/6
f 36/113/5 79/105/5 39/41/5
f 84/114/1 85/115/1 86/116/1
f 87/117/6 83/112/6 26/28/6
f 88/118/5 82/119/5 89/120/5
f 85/115/4 90/121/4 86/116/4
f 91/122/4 83/112/4 92/123/4
f 93/124/4 26/28/4 91/122/4
f 86/116/4 27/29/4 93/124/4
f 92/123/4 82/111/4 94/125/4
f 95/126/6 96/127/6 97/128/6
f 98/129/1 92/123/1 99/130/1
f 25/27/6 90/121/6 95/126/6
f 97/128/3 85/115/3 100/131/3
f 101/132/1 91/122/1 98/129/1
f 101/132/1 86/116/1 93/124/1
f 99/130/1 94/125/1 88/133/1
f 102/134/1 88/133/1 103/135/1
f 104/136/1 84/114/1 101/132/1
f 104/136/1 98/129/1 105/137/1
f 106/138/3 100/131/3 107/139/3
f 108/140/6 95/126/6 109/141/6
f 105/137/1 99/130/1 102/134/1
f 109/141/6 97/128/6 106/138/6
f 103/142/5 89/120/5 110/143/5
f 111/144/6 87/117/6 112/145/6
f 113/146/1 100/131/1 84/114/1
f 110/147/6 81/110/6 111/144/6
f 112/145/6 25/27/6 108/140/6
f 76/101/6 108/140/6 77/102/6
f 114/148/6 111/144/6 80/149/6
f 19/109/1 113/146/1 68/150/1
f 80/149/6 112/145/6 76/101/6
f 36/113/5 110/143/5 114/151/5
f 78/104/6 106/138/6 74/98/6
f 55/152/1 102/134/1 70/153/1
f 77/102/6 109/141/6 78/104/6
f 74/98/3 107/139/3 19/109/3
f 28/154/1 105/137/1 55/152/1
f 28/154/1 113/146/1 104/136/1
f 36/155/1 102/134/1 103/135/1
f 115/156/7 97/157/7 106/158/7
f 75/159/8 115/160/8 14/161/8
f 89/162/9 115/156/9 110/163/9
f 115/156/10 82/164/10 96/165/10
f 1/1/1 7/8/1 2/2/1
f 4/4/2 24/26/2 5/5/2
f 6/7/2 8/9/2 7/8/2
f 8/9/3 20/22/3 2/2/3
f 9/10/4 12/166/4 10/11/4
f 11/13/5 10/54/5 12/14/5
f 13/15/2 40/42/2 14/16/2
f 16/18/6 49/56/6 17/19/6
f 8/167/3 47/108/3 19/109/3
f 21/23/2 32/34/2 13/15/2
f 22/24/3 57/69/3 23/25/3
f 4/4/2 21/23/2 15/17/2
f 4/4/1 12/14/1 22/24/1
f 25/27/6 87/117/6 26/28/6
f 28/30/4 55/67/4 22/24/4
f 29/31/1 69/168/1 30/32/1
f 21/23/2 23/25/2 31/33/2
f 33/35/5 58/71/5 34/36/5
f 69/87/5 38/40/5 37/39/5
f 36/113/5 39/41/5 37/70/5
f 37/70/5 30/32/5 69/168/5
f 32/34/2 37/70/2 39/41/2
f 39/41/2 79/105/2 40/42/2
f 35/37/6 34/36/6 41/43/6
f 9/45/4 68/169/4 28/30/4
f 24/26/2 75/107/2 43/46/2
f 44/47/3 48/65/3 45/48/3
f 4/170/2 6/171/2 1/172/2
f 6/6/2 5/5/2 47/51/2
f 11/13/1 1/50/1 3/53/1
f 48/55/4 17/19/4 49/56/4
f 48/55/4 50/57/4 51/58/4
f 46/49/1 45/48/1 51/60/1
f 52/62/5 51/58/5 50/57/5
f 53/63/5 50/57/5 49/56/5
f 18/64/3 17/173/3 48/65/3
f 5/5/2 43/46/2 54/66/2
f 55/67/4 70/174/4 56/68/4
f 56/68/4 29/31/4 57/69/4
f 32/34/2 31/33/2 30/32/2
f 57/69/1 29/31/1 31/33/1
f 58/71/4 66/81/4 59/72/4
f 41/43/4 34/36/4 58/71/4
f 63/76/3 73/96/3 61/74/3
f 61/175/3 64/176/3 72/94/3
f 72/94/3 62/177/3 61/175/3
f 41/95/6 72/94/6 64/176/6
f 65/80/1 59/72/1 66/81/1
f 67/82/5 66/81/5 58/71/5
f 19/21/3 18/64/3 44/47/3
f 9/83/5 53/63/5 16/18/5
f 3/85/5 52/62/5 53/63/5
f 2/2/1 46/49/1 52/61/1
f 20/22/3 44/47/3 46/49/3
f 68/84/6 16/18/6 18/20/6
f 69/87/5 67/82/5 33/35/5
f 29/88/1 65/80/1 67/82/1
f 70/89/3 42/79/3 71/90/3
f 56/91/3 71/90/3 65/80/3
f 36/38/6 35/37/6 42/44/6
f 38/40/5 33/35/5 35/37/5
f 60/93/4 62/177/4 72/94/4
f 42/79/2 64/78/2 61/74/2
f 59/72/4 63/76/4 62/75/4
f 65/80/1 73/96/1 63/76/1
f 71/90/2 61/74/2 73/96/2
f 43/97/6 78/104/6 74/98/6
f 75/100/6 14/178/6 76/101/6
f 40/42/6 80/106/6 76/103/6
f 75/100/6 77/102/6 78/104/6
f 79/105/6 114/151/6 80/106/6
f 15/17/2 14/16/2 75/179/2
f 47/108/3 54/99/3 74/98/3
f 81/110/6 89/180/6 82/111/6
f 36/113/5 114/151/5 79/105/5
f 84/114/1 100/131/1 85/115/1
f 87/117/6 81/110/6 83/112/6
f 88/118/5 94/181/5 82/119/5
f 85/115/4 96/127/4 90/121/4
f 91/122/4 26/28/4 83/112/4
f 93/124/4 27/29/4 26/28/4
f 86/116/4 90/121/4 27/29/4
f 92/123/4 83/112/4 82/111/4
f 95/126/6 90/121/6 96/127/6
f 98/129/1 91/122/1 92/123/1
f 25/27/6 27/29/6 90/121/6
f 97/128/3 96/127/3 85/115/3
f 101/132/1 93/124/1 91/122/1
f 101/132/1 84/114/1 86/116/1
f 99/130/1 92/123/1 94/125/1
f 102/134/1 99/130/1 88/133/1
f 104/136/1 113/146/1 84/114/1
f 104/136/1 101/132/1 98/129/1
f 106/138/3 97/128/3 100/131/3
f 108/140/6 25/27/6 95/126/6
f 105/137/1 98/129/1 99/130/1
f 109/141/6 95/126/6 97/128/6
f 103/142/5 88/118/5 89/120/5
f 111/144/6 81/110/6 87/117/6
f 113/146/1 107/139/1 100/131/1
f 110/147/6 89/180/6 81/110/6
f 112/145/6 87/117/6 25/27/6
f 76/101/6 112/145/6 108/140/6
f 114/148/6 110/147/6 111/144/6
f 19/109/1 107/139/1 113/146/1
f 80/149/6 111/144/6 112/145/6
f 36/113/5 103/142/5 110/143/5
f 78/104/6 109/141/6 106/138/6
f 55/152/1 105/137/1 102/134/1
f 77/102/6 108/140/6 109/141/6
f 74/98/3 106/138/3 107/139/3
f 28/154/1 104/136/1 105/137/1
f 28/154/1 68/150/1 113/146/1
f 36/155/1 70/153/1 102/134/1
f 74/182/7 54/183/7 115/156/7
f 115/156/7 96/165/7 97/157/7
f 106/158/7 74/182/7 115/156/7
f 75/159/8 43/184/8 115/160/8
f 115/185/8 79/186/8 40/187/8
f 115/185/8 40/187/8 14/188/8
f 43/184/8 54/189/8 115/160/8
f 79/190/9 114/191/9 115/156/9
f 89/162/9 82/164/9 115/156/9
f 114/191/9 110/163/9 115/156/9
